<svg width="402" height="372" viewBox="0 0 402 372" fill="none" xmlns="http://www.w3.org/2000/svg">
<path d="M222.59 109.368C223.758 110.536 224.106 112.575 223.526 115.456C222.95 118.314 221.484 121.862 219.234 125.873C214.738 133.887 207.168 143.641 197.586 153.224C188.003 162.806 178.249 170.376 170.235 174.873C166.224 177.123 162.675 178.589 159.818 179.164C156.937 179.744 154.898 179.396 153.73 178.228L139.226 163.724L208.086 94.8644L222.59 109.368Z" fill="#1A1A1C" stroke="#1A1A1C"/>
<ellipse cx="173.491" cy="129.129" rx="49.1912" ry="13.8302" transform="rotate(-45 173.491 129.129)" fill="#EBEDF0" stroke="#1A1A1C"/>
<path d="M189.254 169.913C189.516 168.77 190.631 167.759 192.708 166.989C194.762 166.226 197.625 165.752 201.11 165.593C208.072 165.276 217.403 166.224 227.443 168.522C237.484 170.821 246.297 174.027 252.428 177.341C255.497 179 257.868 180.672 259.386 182.252C260.921 183.85 261.485 185.246 261.224 186.388L257.817 201.269L185.848 184.793L189.254 169.913Z" fill="#1A1A1C" stroke="#1A1A1C"/>
<ellipse cx="221.754" cy="193.321" rx="36.9102" ry="10.3774" transform="rotate(-167.106 221.754 193.321)" fill="#EBEDF0" stroke="#1A1A1C"/>
<path d="M227.623 31.6077L114.205 102.482L103.243 152.675M227.623 31.6077L296.654 158.652L283.64 204.208M227.623 31.6077L265.891 164.713M227.623 31.6077L140.424 128.872M103.243 152.675L114.205 211.393L176.893 261.26M103.243 152.675L140.424 128.872M176.893 261.26L247.787 249.552L283.64 204.208M176.893 261.26L192.954 202.602M283.64 204.208L265.891 164.713M265.891 164.713L192.954 202.602M192.954 202.602L140.424 128.872" stroke="#1A1A1C"/>
<path d="M56.4115 53.1192L74.5005 83.529L26.6979 109.628L21.1053 55.4528L56.4115 53.1192Z" fill="#EBEDF0"/>
<path d="M21.1053 55.4528L37.6669 88.7673M21.1053 55.4528L56.4115 53.1192L74.5005 83.529M21.1053 55.4528L26.6979 109.628M37.6669 88.7673L74.5005 83.529M37.6669 88.7673L26.6979 109.628M74.5005 83.529L26.6979 109.628" stroke="#1A1A1C"/>
<path d="M73.9215 83.4238L56.4107 53.9921L21.2443 55.7251L37.5858 88.5868L73.9215 83.4238Z" fill="#1A1A1C"/>
<path d="M27.1192 44.0151L76.9608 14.0383L44.4703 75.8283L27.1192 44.0151Z" fill="white" stroke="#1A1A1C" stroke-linejoin="round"/>
<path d="M80.5142 72.0913L76.9606 14.0382L44.4702 75.8282L80.5142 72.0913Z" fill="white" stroke="#1A1A1C" stroke-linejoin="round"/>
<rect x="308.69" y="249.7" width="52.6409" height="52.6409" transform="rotate(-19.7206 308.69 249.7)" fill="#EBEDF0" stroke="#1A1A1C" stroke-linejoin="round"/>
<rect x="324.887" y="215.402" width="52.6409" height="52.6409" transform="rotate(-19.7206 324.887 215.402)" fill="#EBEDF0" stroke="#1A1A1C" stroke-linejoin="round"/>
<path d="M342.601 265.059L333.834 240.601L358.292 231.833L367.06 256.292L342.601 265.059Z" fill="#1A1A1C" stroke="#1A1A1C" stroke-linejoin="round"/>
<path d="M324.784 215.353L308.586 249.651L357.898 231.975L374.489 197.536L324.784 215.353Z" fill="white" stroke="#1A1A1C" stroke-linejoin="round"/>
<path d="M326.404 299.357L342.601 265.059L392.307 247.242L376.109 281.539L326.404 299.357Z" stroke="#1A1A1C" stroke-linejoin="round"/>
<path d="M9.9627 310.306L81.8854 252.902L47.2524 355.812L9.9627 310.306Z" fill="#EBEDF0" stroke="#1A1A1C" stroke-linejoin="round"/>
<path d="M104.468 342.11L81.8851 252.902L47.2522 355.812L104.468 342.11Z" fill="#1A1A1C" stroke="#1A1A1C" stroke-linejoin="round"/>
<path d="M9.92003 310.433L66.8429 297.6L104.425 342.237" stroke="#1A1A1C" stroke-linejoin="round"/>
<path d="M66.8428 297.601L10.7734 310.009L81.8855 252.902L66.8428 297.601Z" fill="white" stroke="#1A1A1C" stroke-linejoin="round"/>
<circle cx="331" cy="62" r="13.5" fill="#EBEDF0" stroke="#1A1A1C"/>
<circle cx="227" cy="337" r="32.5" fill="#EBEDF0" stroke="#1A1A1C"/>
<circle cx="67" cy="179" r="5.5" fill="#EBEDF0" stroke="#1A1A1C"/>
</svg>
