<svg width="696" height="236" viewBox="0 0 696 236" fill="none" xmlns="http://www.w3.org/2000/svg">
<g filter="url(#filter0_d_2_960)">
<rect x="4" y="3" width="688" height="228" rx="12" fill="white"/>
</g>
<mask id="mask0_2_960" style="mask-type:alpha" maskUnits="userSpaceOnUse" x="4" y="3" width="688" height="228">
<rect x="4" y="3" width="688" height="228" rx="12" fill="white"/>
</mask>
<g mask="url(#mask0_2_960)">
<path d="M49.3386 27.7129C48.6472 26.3455 48.9792 24.3989 50.4688 21.92C51.943 19.4666 54.4733 16.6284 57.8849 13.5861C64.7026 7.5066 74.9519 0.689468 87.0174 -5.41131C99.0829 -11.5121 110.649 -15.7255 119.586 -17.6124C124.059 -18.5566 127.845 -18.912 130.694 -18.645C133.574 -18.3752 135.338 -17.4887 136.03 -16.1213L144.756 1.13659L58.0648 44.9708L49.3386 27.7129Z" fill="#1A1A1C" stroke="#1A1A1C"/>
<path d="M58.1774 45.1931C57.4859 43.8257 57.818 41.8791 59.3075 39.4002C60.7817 36.9468 63.3121 34.1086 66.7237 31.0663C73.5414 24.9868 83.7907 18.1697 95.8562 12.0689C107.922 5.96812 119.488 1.75474 128.425 -0.132175C132.898 -1.07642 136.683 -1.43182 139.533 -1.1648C142.413 -0.894983 144.177 -0.00849947 144.868 1.35892C145.56 2.72633 145.228 4.67292 143.738 7.15185C142.264 9.60521 139.734 12.4434 136.322 15.4857C129.504 21.5652 119.255 28.3824 107.19 34.4831C95.1241 40.5839 83.5583 44.7973 74.6207 46.6842C70.1482 47.6284 66.3625 47.9839 63.5128 47.7168C60.6333 47.447 58.8688 46.5605 58.1774 45.1931Z" fill="#EBEDF0" stroke="#1A1A1C"/>
<path d="M318.446 183.732C313.38 188.744 312.656 197.366 315.816 207.423C318.967 217.452 325.945 228.759 336.021 238.944C346.097 249.13 357.329 256.229 367.323 259.488C377.346 262.756 385.975 262.125 391.041 257.112L401.285 246.978L328.69 173.598L318.446 183.732Z" fill="#1A1A1C" stroke="#1A1A1C"/>
<path d="M329.029 173.23C323.963 178.242 323.244 186.869 326.413 196.935C329.574 206.974 336.564 218.294 346.654 228.493C356.745 238.693 367.989 245.805 377.993 249.073C388.024 252.35 396.659 251.724 401.725 246.712C406.792 241.7 407.511 233.073 404.341 223.006C401.181 212.968 394.19 201.648 384.1 191.448C374.01 181.249 362.766 174.137 352.762 170.869C342.73 167.591 334.096 168.217 329.029 173.23Z" fill="#EBEDF0" stroke="#1A1A1C"/>
<path d="M362.583 203.11L356.869 222.351L387.318 234.599L382.63 202.116L362.583 203.11Z" fill="white"/>
<path d="M382.63 202.116L378.187 222.975M382.63 202.116L362.583 203.11L356.869 222.351M382.63 202.116L387.318 234.599M378.187 222.975L356.869 222.351M378.187 222.975L387.318 234.599M356.869 222.351L387.318 234.599" stroke="#1A1A1C"/>
<path d="M377.623 195.742L345.477 181.332L372.524 215.765L377.623 195.742Z" fill="white" stroke="#1A1A1C" stroke-linejoin="round"/>
<path d="M351.863 215.977L345.476 181.332L372.523 215.765L351.863 215.977Z" fill="white" stroke="#1A1A1C" stroke-linejoin="round"/>
<path d="M493.611 62.4982C489.115 76.2561 474.47 83.8024 460.909 79.3709L454.555 77.2945L470.829 27.4943L477.183 29.5707C490.744 34.0022 498.107 48.7403 493.611 62.4982Z" fill="#1A1A1C" stroke="#1A1A1C"/>
<circle cx="462.223" cy="52.2228" r="26.3431" transform="rotate(18.0967 462.223 52.2228)" fill="#EBEDF0" stroke="#1A1A1C"/>
<path d="M463.228 66.1431L451.236 63.1825L454.465 50.105L457.693 37.0276L467.079 39.3449C470.69 40.2365 472.895 43.8867 472.004 47.498C471.112 51.1092 467.462 53.3139 463.85 52.4223L466.456 53.0657C470.068 53.9573 472.272 57.6075 471.381 61.2188C470.489 64.83 466.839 67.0347 463.228 66.1431Z" fill="white"/>
<path d="M454.465 50.105L457.693 37.0276L467.079 39.3449C470.69 40.2365 472.895 43.8867 472.004 47.498V47.498C471.112 51.1092 467.462 53.3139 463.85 52.4223L454.465 50.105ZM454.465 50.105L451.236 63.1825L463.228 66.1431C466.839 67.0347 470.489 64.83 471.381 61.2188V61.2188C472.272 57.6075 470.068 53.9573 466.456 53.0657L454.465 50.105Z" stroke="#1A1A1C" stroke-linecap="round" stroke-linejoin="round"/>
<path d="M457.983 37.099L454.991 36.3604" stroke="#1A1A1C" stroke-linecap="round" stroke-linejoin="round"/>
<path d="M451.526 63.2538L448.534 62.5151" stroke="#1A1A1C" stroke-linecap="round" stroke-linejoin="round"/>
<path d="M455.193 64.1593L454.335 67.6338" stroke="#1A1A1C" stroke-linecap="round" stroke-linejoin="round"/>
<path d="M462.485 34.6265L461.708 37.772" stroke="#1A1A1C" stroke-linecap="round" stroke-linejoin="round"/>
<path d="M459.246 65.1601L458.389 68.6345" stroke="#1A1A1C" stroke-linecap="round" stroke-linejoin="round"/>
<path d="M466.538 35.6273L465.637 38.9695" stroke="#1A1A1C" stroke-linecap="round" stroke-linejoin="round"/>
</g>
<defs>
<filter id="filter0_d_2_960" x="0" y="0" width="696" height="236" filterUnits="userSpaceOnUse" color-interpolation-filters="sRGB">
<feFlood flood-opacity="0" result="BackgroundImageFix"/>
<feColorMatrix in="SourceAlpha" type="matrix" values="0 0 0 0 0 0 0 0 0 0 0 0 0 0 0 0 0 0 127 0" result="hardAlpha"/>
<feOffset dy="1"/>
<feGaussianBlur stdDeviation="2"/>
<feComposite in2="hardAlpha" operator="out"/>
<feColorMatrix type="matrix" values="0 0 0 0 0 0 0 0 0 0 0 0 0 0 0 0 0 0 0.15 0"/>
<feBlend mode="normal" in2="BackgroundImageFix" result="effect1_dropShadow_2_960"/>
<feBlend mode="normal" in="SourceGraphic" in2="effect1_dropShadow_2_960" result="shape"/>
</filter>
</defs>
</svg>
