<svg width="986" height="276" viewBox="0 0 986 276" fill="none" xmlns="http://www.w3.org/2000/svg">
<g filter="url(#filter0_d_2_928)">
<rect x="4" y="3" width="978" height="268" rx="12" fill="white"/>
</g>
<mask id="mask0_2_928" style="mask-type:alpha" maskUnits="userSpaceOnUse" x="4" y="3" width="978" height="268">
<rect x="4" y="3" width="978" height="268" rx="12" fill="white"/>
</mask>
<g mask="url(#mask0_2_928)">
<path d="M96.7796 27.8865C95.7511 25.8525 96.2697 23.0143 98.3852 19.4936C100.485 15.9985 104.081 11.9685 108.913 7.6594C118.572 -0.953703 133.084 -10.6044 150.159 -19.2382C167.234 -27.872 183.608 -33.8383 196.271 -36.5116C202.605 -37.849 207.982 -38.356 212.042 -37.9756C216.132 -37.5924 218.725 -36.3276 219.753 -34.2936L232.188 -9.70154L109.214 52.4785L96.7796 27.8865Z" fill="#1A1A1C" stroke="#1A1A1C"/>
<path d="M109.28 52.6079C108.251 50.574 108.77 47.7357 110.885 44.215C112.986 40.7199 116.581 36.6899 121.414 32.3808C131.072 23.7677 145.584 14.117 162.659 5.48321C179.734 -3.1506 196.109 -9.11687 208.771 -11.7902C215.106 -13.1276 220.483 -13.6345 224.543 -13.2541C228.632 -12.8709 231.225 -11.6061 232.254 -9.57215C233.282 -7.53819 232.764 -4.69993 230.648 -1.17926C228.548 2.31583 224.952 6.34586 220.12 10.6549C210.461 19.268 195.95 28.9187 178.874 37.5526C161.799 46.1864 145.425 52.1526 132.763 54.8259C126.428 56.1633 121.051 56.6703 116.991 56.2899C112.902 55.9067 110.308 54.6419 109.28 52.6079Z" fill="#EBEDF0" stroke="#1A1A1C"/>
<path d="M1022.4 119.259C1019.97 126.713 1012.56 131.859 1002.39 134.064C992.23 136.266 979.402 135.505 966.328 131.229C953.254 126.953 942.456 119.987 935.56 112.207C928.655 104.416 925.725 95.8914 928.163 88.4376L933.069 73.4373L1027.31 104.259L1022.4 119.259Z" fill="#1A1A1C" stroke="#1A1A1C"/>
<ellipse cx="980.558" cy="88.442" rx="49.8536" ry="29.3079" transform="rotate(18.1104 980.558 88.442)" fill="#EBEDF0" stroke="#1A1A1C"/>
<path d="M635.345 48.6041C642.182 55.3682 643.131 66.9694 638.902 80.4271C634.682 93.857 625.343 108.987 611.865 122.61C598.388 136.233 583.359 145.735 569.976 150.099C556.564 154.473 544.954 153.649 538.116 146.885L524.311 133.227L621.539 34.9462L635.345 48.6041Z" fill="#1A1A1C" stroke="#1A1A1C"/>
<path d="M621.206 34.5727C628.042 41.3365 628.984 52.945 624.743 66.4153C620.511 79.8577 611.154 95.0048 597.658 108.647C584.162 122.289 569.117 131.808 555.721 136.184C542.297 140.57 530.679 139.754 523.842 132.99C517.005 126.226 516.064 114.618 520.304 101.147C524.536 87.7049 533.893 72.5578 547.389 58.9157C560.885 45.2736 575.931 35.7547 589.327 31.3782C602.75 26.9926 614.369 27.8089 621.206 34.5727Z" fill="#EBEDF0" stroke="#1A1A1C"/>
<path d="M576.257 74.6145L583.892 100.321L543.209 116.687L549.474 73.2858L576.257 74.6145Z" fill="white"/>
<path d="M549.474 73.2858L555.409 101.155M549.474 73.2858L576.257 74.6145L583.892 100.321M549.474 73.2858L543.209 116.687M555.409 101.155L583.892 100.321M555.409 101.155L543.209 116.687M583.892 100.321L543.209 116.687" stroke="#1A1A1C"/>
<path d="M556.162 64.7702L599.113 45.5178L562.976 91.522L556.162 64.7702Z" fill="white" stroke="#1A1A1C" stroke-linejoin="round"/>
<path d="M590.58 91.8059L599.113 45.5178L562.976 91.522L590.58 91.8059Z" fill="white" stroke="#1A1A1C" stroke-linejoin="round"/>
<path d="M663.611 208.498C659.115 222.256 644.47 229.802 630.909 225.371L624.555 223.295L640.829 173.494L647.183 175.571C660.744 180.002 668.107 194.74 663.611 208.498Z" fill="#1A1A1C" stroke="#1A1A1C"/>
<circle cx="632.223" cy="198.223" r="26.3431" transform="rotate(18.0967 632.223 198.223)" fill="#EBEDF0" stroke="#1A1A1C"/>
<path d="M633.228 212.143L621.236 209.182L624.465 196.105L627.693 183.028L637.079 185.345C640.69 186.236 642.895 189.887 642.004 193.498C641.112 197.109 637.462 199.314 633.85 198.422L636.456 199.066C640.068 199.957 642.272 203.608 641.381 207.219C640.489 210.83 636.839 213.035 633.228 212.143Z" fill="white"/>
<path d="M624.465 196.105L627.693 183.028L637.079 185.345C640.69 186.236 642.895 189.887 642.004 193.498V193.498C641.112 197.109 637.462 199.314 633.85 198.422L624.465 196.105ZM624.465 196.105L621.236 209.182L633.228 212.143C636.839 213.035 640.489 210.83 641.381 207.219V207.219C642.272 203.608 640.068 199.957 636.456 199.066L624.465 196.105Z" stroke="#1A1A1C" stroke-linecap="round" stroke-linejoin="round"/>
<path d="M627.983 183.099L624.991 182.36" stroke="#1A1A1C" stroke-linecap="round" stroke-linejoin="round"/>
<path d="M621.526 209.254L618.534 208.515" stroke="#1A1A1C" stroke-linecap="round" stroke-linejoin="round"/>
<path d="M625.193 210.159L624.335 213.634" stroke="#1A1A1C" stroke-linecap="round" stroke-linejoin="round"/>
<path d="M632.485 180.626L631.708 183.772" stroke="#1A1A1C" stroke-linecap="round" stroke-linejoin="round"/>
<path d="M629.246 211.16L628.389 214.635" stroke="#1A1A1C" stroke-linecap="round" stroke-linejoin="round"/>
<path d="M636.538 181.627L635.637 184.969" stroke="#1A1A1C" stroke-linecap="round" stroke-linejoin="round"/>
</g>
<defs>
<filter id="filter0_d_2_928" x="0" y="0" width="986" height="276" filterUnits="userSpaceOnUse" color-interpolation-filters="sRGB">
<feFlood flood-opacity="0" result="BackgroundImageFix"/>
<feColorMatrix in="SourceAlpha" type="matrix" values="0 0 0 0 0 0 0 0 0 0 0 0 0 0 0 0 0 0 127 0" result="hardAlpha"/>
<feOffset dy="1"/>
<feGaussianBlur stdDeviation="2"/>
<feComposite in2="hardAlpha" operator="out"/>
<feColorMatrix type="matrix" values="0 0 0 0 0 0 0 0 0 0 0 0 0 0 0 0 0 0 0.15 0"/>
<feBlend mode="normal" in2="BackgroundImageFix" result="effect1_dropShadow_2_928"/>
<feBlend mode="normal" in="SourceGraphic" in2="effect1_dropShadow_2_928" result="shape"/>
</filter>
</defs>
</svg>
