<svg width="130" height="32" viewBox="0 0 130 32" fill="none" xmlns="http://www.w3.org/2000/svg">
<path d="M5.47507 0H17.1413V9.34367H0L5.47507 0Z" fill="#1A1A1C"/>
<path d="M5.4686 20.6718L0 11.3281H24.1314L29.6 20.6718H5.4686Z" fill="#1A1A1C"/>
<path d="M24.125 31.9999H12.459V22.6562H29.6002L24.125 31.9999Z" fill="#1A1A1C"/>
<path fill-rule="evenodd" clip-rule="evenodd" d="M54.5411 20.7452C54.0672 20.9384 53.4933 21.1128 53.4307 21.1316C53.0709 21.2388 52.6707 21.3043 52.1891 21.3043C50.9949 21.3043 50.4422 20.7061 50.4422 19.4565V13.087H54.6219V11.4241H50.4422V9H48.6509V19.6087C48.6509 21.7602 49.9996 22.9999 52.1009 22.9999C52.9743 22.9999 53.7703 22.8365 54.5663 22.5103C54.741 22.4398 54.976 22.3243 55.156 22.2065L54.5411 20.7452ZM96.3966 20.7452C95.9227 20.9384 95.3488 21.1128 95.2862 21.1316C94.9264 21.2388 94.5265 21.3043 94.0445 21.3043C92.8507 21.3043 92.2977 20.7061 92.2977 19.4565V13.087H96.4774V11.4241H92.2977V9H90.5064V19.6087C90.5064 21.7602 91.8551 22.9999 93.9564 22.9999C94.8298 22.9999 95.6258 22.8365 96.4218 22.5103C96.5965 22.4398 96.8318 22.3243 97.0119 22.2065L96.3966 20.7452ZM118.215 11.7416C117.956 11.6215 117.645 11.5182 117.472 11.4673C117.008 11.3264 116.333 11.2281 115.515 11.2281C113.249 11.2281 111.911 12.5432 111.911 14.7609V22.8039H113.702V14.8039C113.702 13.5649 114.332 12.9568 115.604 12.9568C116.067 12.9568 116.479 13.0057 116.848 13.0908C116.897 13.102 117.286 13.194 117.741 13.3336L118.215 11.7416ZM121.618 15.8479C121.762 14.0762 122.989 12.8696 124.836 12.8696C126.782 12.8696 128.076 14.1308 127.888 16.4239H121.585L121.618 15.8479ZM128.485 20.4657C128.323 20.5381 128.133 20.6143 127.962 20.6829C127.851 20.7273 127.748 20.7687 127.666 20.8038C126.859 21.141 126.018 21.3474 124.979 21.3474C123.033 21.3474 121.761 20.206 121.618 18.4998C121.596 18.2827 121.585 18.0654 121.585 17.8371H129.552C129.594 17.1956 129.601 16.5557 129.601 15.9132C129.601 13.185 127.832 11.2611 124.868 11.2611C122.071 11.2611 120.136 13.0977 119.881 15.7279C119.804 16.5325 119.815 17.804 119.893 18.6195C120.158 21.217 122.093 23 124.979 23C126.284 23 127.423 22.6844 128.539 22.206C128.678 22.1481 128.888 22.0366 129.094 21.9125L128.485 20.4657ZM106.736 11.4242H108.528V21.5575C108.283 21.7451 108.085 21.8585 108.085 21.8585C107.311 22.3257 105.708 23 103.74 23C100.732 23 98.9956 21.3153 98.9956 18.4564V11.4242H100.787V18.3151C100.787 20.2715 101.771 21.2822 103.751 21.2822C104.912 21.2822 106.062 20.9563 106.736 20.5213V11.4242ZM78.3148 18.663C78.2707 18.2339 78.2485 17.6748 78.2485 17.114C78.2485 16.5532 78.2707 15.994 78.3148 15.5649C78.5582 12.9999 80.4269 11.2281 83.2357 11.2281C85.5467 11.2281 87.0502 12.3911 87.6914 13.9567C87.7779 14.1618 87.8927 14.5687 87.9627 14.8536L86.3376 15.3694C86.273 15.1821 86.2091 15.0068 86.1656 14.9022C85.6904 13.641 84.7395 12.9568 83.2576 12.9568C81.3889 12.9568 80.261 14.0758 80.0954 15.7499C80.0567 16.1684 80.0375 16.6402 80.0371 17.114C80.0375 17.5878 80.0567 18.0595 80.0954 18.4781C80.261 20.1522 81.3889 21.2711 83.2576 21.2711C84.7395 21.2711 85.6904 20.5869 86.1656 19.3257C86.2091 19.2212 86.273 19.0458 86.3376 18.8585L87.9627 19.3743C87.8927 19.6592 87.7779 20.0661 87.6914 20.2713C87.0502 21.8369 85.5467 22.9998 83.2357 22.9998C80.4269 22.9998 78.5582 21.2281 78.3148 18.663ZM75.2884 11.4242H73.4971V20.5213C72.8223 20.9563 71.6725 21.2822 70.5116 21.2822C68.5322 21.2822 67.5477 20.2715 67.5477 18.3151V11.4242H65.7564V18.4564C65.7564 21.3153 67.4928 23 70.5005 23C72.4688 23 74.0717 22.3257 74.8458 21.8586C74.8458 21.8586 75.0437 21.7451 75.2884 21.5575V11.4242ZM62.8591 11.4673C63.0321 11.5182 63.3427 11.6215 63.6019 11.7416L63.1273 13.3336C62.6726 13.194 62.2838 13.102 62.235 13.0908C61.8658 13.0057 61.4535 12.9568 60.9904 12.9568C59.7187 12.9568 59.0887 13.5649 59.0887 14.8039V22.8039H57.2974V14.7609C57.2974 12.5432 58.6353 11.2281 60.9022 11.2281C61.7201 11.2281 62.3949 11.3264 62.8591 11.4673ZM41.5751 16.0327L43.2116 16.4023C45.3456 16.8913 46.3186 17.9566 46.3186 19.5325C46.3186 21.6628 44.671 22.9998 42.183 22.9998C40.5136 22.9998 39.1645 22.576 38.1252 21.7607C38.0006 21.6661 37.7832 21.4858 37.6001 21.3121L38.591 20.0271C38.7694 20.1607 38.9491 20.2924 39.1295 20.4201C39.3954 20.6084 39.6671 20.7821 39.9646 20.9187C40.2722 21.06 40.5974 21.1626 40.9299 21.2304C41.3453 21.3154 41.7704 21.3478 42.1945 21.3478C43.7865 21.3478 44.5495 20.6196 44.5495 19.598C44.5495 18.8043 44.0628 18.3043 42.8023 18.0218L41.0773 17.6086C39.2197 17.1847 38.0918 16.1955 38.0918 14.5763C38.0918 12.5221 39.7616 11.2284 42.1389 11.2284C43.6758 11.2284 44.8037 11.7396 45.5334 12.272C45.6687 12.3686 45.8807 12.5495 46.043 12.712L45.011 14.0499C44.9077 13.9676 44.8023 13.8878 44.6956 13.8097C44.3422 13.5507 43.978 13.3102 43.566 13.1504C43.1271 12.9803 42.6552 12.8916 42.183 12.8916C40.6795 12.8916 39.8391 13.4786 39.8391 14.5327C39.8391 15.2175 40.248 15.7283 41.5751 16.0327Z" fill="#1A1A1C"/>
</svg>
